<?xml version="1.0" encoding="utf-8"?>
<!-- Generator: Adobe Illustrator 19.0.0, SVG Export Plug-In . SVG Version: 6.00 Build 0)  -->
<svg version="1.1" xmlns="http://www.w3.org/2000/svg" xmlns:xlink="http://www.w3.org/1999/xlink" x="0px" y="0px"
	 viewBox="0 0 476.3 753" style="enable-background:new 0 0 476.3 753;" xml:space="preserve">
<style type="text/css">
	.st0{fill:#71A856;}
	.st1{fill:#B51A5F;}
	.st2{fill:#99195C;}
	.st3{fill:none;stroke:#99195C;stroke-width:17;stroke-linecap:round;stroke-miterlimit:10;}
	.st4{fill:none;stroke:#99195C;stroke-miterlimit:10;}
	.st5{fill:none;stroke:#D86091;stroke-width:23;stroke-linecap:round;stroke-miterlimit:10;}
	.st6{fill:#628C49;}
	.st7{opacity:0.21;}
	.st8{fill:#5E2849;}
</style>
<g id="Layer_3">
	<path id="XMLID_8_" class="st0" d="M256.1,350.1c0,0,11-61,36-60s49,25,68,22s32-38,32-38l-6-23c0,0,49-3,70-32s0-73-11-79
		s-39-7-39-7s55-39,51-62s-6-71-46-56s-50.5,28-50.5,28s10.5-59-52.5-39s-42,77-42,77s-15.7-37-53.4-22s-32.4,108,0,135
		s-14.6,3-14.6,3s-31,2-4,40s54,46,54,46s9,42-2,67S256.1,350.1,256.1,350.1z"/>
</g>
<g id="Layer_2">
	<g id="XMLID_1_">
		<polygon id="XMLID_17_" class="st1" points="231.9,334.5 197.9,322.4 162.6,315.5 126.1,312 90.7,322.4 62.5,345.6 33.8,368.9 
			17.2,402.2 13.2,439 7.4,475.3 18.4,510.6 20.8,547.5 39.4,579.2 58.1,608.5 83.4,632.8 114.8,648.9 144,668.7 174.8,686.3 
			195.2,711.5 215.8,736.5 243.5,753 244.6,749.9 249.8,715 269.8,693.5 299.1,681 327.3,659.7 360.6,647.4 389.9,627.2 
			421.5,610.7 444.4,583.2 465.8,554.7 471.6,519.5 476.3,483.6 469.6,448.1 459.5,414.1 445.2,382 426.6,351.8 400.7,329.3 
			367.2,323.8 333.1,320.8 299.3,326.7 266.5,336.9 		"/>
	</g>
</g>
<g id="Layer_4">
	<g id="XMLID_27_">
		<g id="XMLID_102_">
			<path id="XMLID_9_" class="st2" d="M9.9,460.5c-2,4.4-2.4,8.5-2.7,13.3c-0.3,5.1-2.2,9.6-2.5,14.7c-0.2,2.2-0.3,4.4-0.4,6.6
				c0,1.2,0,2.4-0.1,3.7c0.1-1.1,1.4-5.7-0.8,1.1c-1.7,5-0.7,11.1-0.1,16.3c2.3,20.4,8.5,40,17.3,58.5c8.2,17.4,19.5,33.6,33.2,47.2
				c14.9,14.7,32.5,25.3,51,34.6c10.7,5.4,21.6,10.5,32,16.4c10.6,6.1,20.7,12.8,32,17.6c-1.8-1-3.6-2.1-5.4-3.1
				c4.9,4.6,8.1,8.6,11.2,12.9c1.9,2.7,3.7,5.4,5.6,8.1c2.9,4,5.8,6.7,9.7,9.5c-1.1-1.1-2.1-2.1-3.2-3.2c6.1,9.1,13.3,19.1,22,25.8
				c7.7,6,17.3,13.2,27.6,10.9c2.9-0.7,2.8-4.3,0.8-5.8c-4-2.9-8.5-4.9-12.5-7.8c-3.9-2.9-6.5-6.9-9.4-10.7
				c-3.3-4.3-6.5-8.7-8.8-13.6c-1.1-2.2-3-4.4-3.8-6.6c-0.9-2.8-1.4-5.7-2.8-8.5c-2.4-4.9-5.4-9.5-8.4-14.1
				c-3.1-4.7-7-8.8-10.1-13.4c1.4,2.2-0.3-1.3-0.7-1.9c-1.2-1.9-2.7-3.6-4.1-5.4c-3-3.7-6.1-6.6-9.9-9.6c-5.9-4.5-12-8.4-18.5-11.9
				c-12.6-7-25.8-12.9-38.6-19.7c-6.2-3.3-12.2-6.7-17.9-10.7c-1.2-0.8-2.4-1.7-3.6-2.6c-0.6-0.4-1.2-0.9-1.8-1.3
				c0.5,0.4,2.2,1.8-0.2-0.2c-2.4-2-4.8-4-7.1-6.1c-4.7-4.4-9.1-9-13.2-14c-0.6-0.7-2.7-3.3-1-1.2c-1-1.3-2-2.6-2.9-4
				c-1.9-2.7-3.8-5.4-5.5-8.2c-3.3-5.2-6.2-10.6-8.9-16.1c-1.4-2.8-2.6-5.6-3.8-8.4c1,2.4-0.3-0.7-0.6-1.6c-0.7-1.8-1.4-3.6-2-5.4
				c-4.9-13.5-8.3-27.3-12.5-41c-0.5-1.5-1-3-1.9-4.4c-0.3-0.5-3.1-4.5-1.9-2.3c1,2,0.1-0.2,0-0.6c-0.2-0.9-0.5-1.9-0.8-2.8
				c-1-3.7-1.7-7.6-3.3-11.1c-3-6.5-2.6-13.6-5.5-20.1C14,458.6,10.7,458.6,9.9,460.5L9.9,460.5z"/>
		</g>
	</g>
	<g id="XMLID_124_">
		<g id="XMLID_238_">
			<path id="XMLID_208_" class="st2" d="M175.9,320.5c-1-0.4-1.8,0.9-1.3,1.7c0.4,0.7,1.3,0.8,1.8,0.2
				C177.1,321.8,176.7,320.8,175.9,320.5L175.9,320.5z"/>
		</g>
	</g>
	<g id="XMLID_20_">
		<g id="XMLID_152_">
			<path id="XMLID_10_" class="st2" d="M236.7,317.8c-48.1-16.9-103-28.3-151.7-7.4c-16.5,7.1-31.5,18.3-43.5,31.6
				c-18.2,20-29,45.8-34.9,71.9c-6.4,28.6-8,58.4-5.5,87.6c0.7,7.8,6.4,15.4,15,15c7.6-0.3,15.7-6.6,15-15c-1-11.3-1.3-22.7-1-34.1
				c0.2-6.3,0.6-12.6,1.1-18.9c0.3-2.9,0.6-5.9,1-8.8c-0.3,2.4,0.2-1.1,0.3-1.9c0.3-1.7,0.5-3.4,0.8-5.1c2.1-12,5.1-23.9,9.3-35.4
				c0.6-1.6,1.2-3.1,1.8-4.7c-0.9,2.2,0.4-1,0.7-1.7c1.3-2.8,2.6-5.5,4.1-8.2c2.7-5.1,5.8-10,9.2-14.7c1.6-2.2-0.8,0.8,1-1.3
				c0.9-1,1.8-2.1,2.7-3.1c1.5-1.7,3.2-3.4,4.8-5c2.8-2.8,5.7-5.4,8.7-7.9c0.4-0.4,3.4-2.7,1.4-1.2c-1.8,1.5,0.7-0.5,1.1-0.8
				c1.7-1.2,3.4-2.4,5.1-3.5c3.4-2.2,6.9-4.2,10.5-6c1.8-0.9,3.6-1.6,5.4-2.5c0.8-0.4-2.7,1,0.1,0c1.1-0.4,2.2-0.8,3.3-1.2
				c4.1-1.5,8.4-2.7,12.6-3.7c2.3-0.5,4.7-1,7-1.4c1.1-0.2,2.2-0.3,3.4-0.5c-3.1,0.5-0.2,0,1.2-0.1c5.1-0.5,10.2-0.8,15.3-0.8
				c6.3,0,12.5,0.3,18.7,1c1.7,0.2,3.3,0.4,5,0.6c1.8,0.2-0.1,0-0.4-0.1c1,0.1,2,0.3,2.9,0.4c3.6,0.5,7.1,1.2,10.6,1.9
				c16.9,3.3,33.4,8.3,49.6,14c7.4,2.6,16.7-3,18.5-10.5C249.1,327.8,244.6,320.6,236.7,317.8L236.7,317.8z"/>
		</g>
	</g>
	<g id="XMLID_166_">
		<g id="XMLID_280_">
			<path id="XMLID_229_" class="st2" d="M66.1,345.4c2.8-2.1,5.7-4.1,8.7-6c0.3-0.2,0.1-0.6-0.2-0.5c-3.4,1.2-6.5,2.8-9.5,4.8
				C64,344.4,65.1,346.2,66.1,345.4L66.1,345.4z"/>
		</g>
	</g>
	<path id="XMLID_16_" class="st3" d="M136.5,363c0,0-69.6,8-70.2,107"/>
	<path id="XMLID_5_" class="st4" d="M232.7,332.2"/>
	<path id="XMLID_25_" class="st4" d="M243,334.7"/>
	<path id="XMLID_12_" class="st5" d="M340.1,353.1c0,0,68-7,83,83"/>
</g>
<g id="Layer_5">
	<g id="XMLID_11_">
		<g id="XMLID_46_">
			<path id="XMLID_21_" class="st6" d="M382.2,249.5c2.8,0.8,5.4,0.6,8.3,0.4c3-0.2,6-0.1,8.9-0.4c6.1-0.8,12.2-2.9,18-5.1
				c10.4-3.8,20.7-8.3,29.5-15.2c7.6-6,14.8-15.7,17.8-25c2.5-7.9,5.3-19.3-1.7-25.8c-0.4-0.4-1.1-0.2-1.3,0.3
				c-2.9,8-2.5,16.1-7.4,23.6c-5.1,7.9-12.1,12.4-20,17.2c-7.8,4.8-15.9,8.6-24.3,12.3c-4.8,2.1-9.9,3.8-14.7,6
				c-4.6,2.1-9.6,3-14,5.3C378.6,244.6,379.5,248.7,382.2,249.5L382.2,249.5z"/>
		</g>
	</g>
	<g id="XMLID_13_">
		<g id="XMLID_40_">
			<path id="XMLID_19_" class="st6" d="M325.7,4.7c-1.6-3.5-6.6-2.2-9.7-1.8c-5,0.7-9.8,1.9-14.4,3.7c-8.7,3.4-17.1,8.2-23.9,14.5
				c-7,6.5-13.9,15-17.1,24.1c-3.4,9.7-1.1,23.2,6.7,30.3c0.5,0.5,1.7,0.4,1.8-0.5c0.7-4.5-0.2-9-0.1-13.4c0.1-5.2,0.3-10.4,2-15.3
				c3-8.8,9.2-16.1,16-22.2c6.6-5.9,14.4-10.1,22.9-12.6c4.1-1.2,8.3-1.6,12.4-2.6C324,8.4,326.7,7,325.7,4.7L325.7,4.7z"/>
		</g>
	</g>
	<g id="XMLID_14_">
		<g id="XMLID_34_">
			<path id="XMLID_18_" class="st6" d="M273.3,301.8c3.8,0.2,7.2-4.2,10.4-5.9c5.3-2.8,10.3-3.4,16.1-2c6.2,1.5,11.2,4.8,16.7,7.9
				c4.8,2.7,9.8,5.1,14.9,7.3c9.5,4.1,20.5,6.5,30.5,2.9c7-2.5,18.3-10.9,13.9-19.7c-0.8-1.5-2.5-1.9-4.1-1.7
				c-3.7,0.5-6.8,3.8-10.3,5.1c-3.6,1.4-7.3,2-11.2,1.8c-10.8-0.5-20.5-6.9-30.6-10c-10-3.1-20.4-3.5-30.5-0.4
				c-5.4,1.7-18.2,6.2-17.2,13.5C271.9,301.3,272.7,301.8,273.3,301.8L273.3,301.8z"/>
		</g>
	</g>
	<g id="XMLID_23_" class="st7">
		<g id="XMLID_146_">
			<path id="XMLID_65_" class="st2" d="M344.1,82.2c1.3-1.5,2.2-2.9,2.1-5c0-0.1-0.1-0.1-0.1,0C346.2,78.9,345.6,81.1,344.1,82.2
				C344,82.1,344.1,82.2,344.1,82.2L344.1,82.2z"/>
		</g>
	</g>
	<g id="XMLID_26_">
		<g id="XMLID_74_">
			<path class="st2" d="M351.1,69.2c0.1,0,0.1-0.1,0-0.1C351.1,69.1,351.1,69.2,351.1,69.2L351.1,69.2z"/>
		</g>
	</g>
	<g id="XMLID_22_" class="st7">
		<g id="XMLID_140_">
			<path id="XMLID_64_" class="st8" d="M341.6,94.9c-5.2,6.4-9.2,14-13.7,21c-4.8,7.5-10.3,14.4-15.1,21.9
				c-9.6,15-18.3,30.5-25.8,46.6c-7.3,15.6-13.4,31.9-18.5,48.4c-2.5,8.3-4.8,16.6-6.9,25c-1.9,7.6-6.1,17.6-0.3,24.2
				c1.4,1.6,3.8,1.6,5.6,0.7c7.4-3.6,7.6-14.8,9.3-21.9c1.9-7.8,4-15.6,6.3-23.3c4.9-16.3,10.5-32.3,16.6-48.1
				c6.1-15.9,13-31.4,20.3-46.8c3.7-7.7,6.8-15.8,11-23.2c4.3-7.6,9.6-15,13.3-22.9C344.4,95.3,342.7,93.7,341.6,94.9L341.6,94.9z"
				/>
		</g>
	</g>
	<g id="XMLID_33_" class="st7">
		<g id="XMLID_134_">
			<path id="XMLID_63_" class="st8" d="M284,262.9c0.5-0.6,3-1.7,3.7-2.1c1.8-1.1,3.6-1.9,5.7-2.4c4.3-1.1,8.7-0.8,13.1-0.1
				c7.9,1.3,17.9,6.4,25.8,3.9c1.7-0.5,2.2-2.5,1-3.8c-3.6-4-9.6-5-14.6-6.3c-5.4-1.4-10.8-2.7-16.4-2.7c-4.5,0-9,0.8-13.1,2.5
				c-2,0.9-4,1.9-5.7,3.3c-1.7,1.4-2,3.2-3.3,4.6C277.7,262.5,281.9,265.8,284,262.9L284,262.9z"/>
		</g>
	</g>
	<g id="XMLID_38_" class="st7">
		<g id="XMLID_128_">
			<path id="XMLID_62_" class="st8" d="M254,247.5c0-1.1,0.5-1.8,0.3-2.9c-0.2-1.3-1.3-2.9-2-4c-1.7-2.5-3.9-4.9-6.5-6.6
				c-3.8-2.4-11.7-5.5-15.8-2.3c-0.6,0.5-0.5,1.4,0,1.9c1.5,1.5,3.3,1.6,5.2,2.4c2.5,1,4.8,2.4,7,4c2.2,1.6,4.1,3.2,6,5.2
				c1.3,1.4,2.7,1.9,3.9,3C252.9,248.8,254.1,248.5,254,247.5L254,247.5z"/>
		</g>
	</g>
	<g id="XMLID_39_" class="st7">
		<g id="XMLID_121_">
			<path id="XMLID_61_" class="st8" d="M276,189.4c1.7-6.3-1.2-12.8-5.3-17.6c-2.4-2.8-5.3-5.1-8.2-7.2c-2.9-2.2-5.8-5-9.4-5.6
				c-3.2-0.6-5.2,2.3-4,5.2c2,4.6,7.9,6.9,11.7,9.8c5,3.8,8.4,8.4,9.2,14.7C270.4,191.8,275,193,276,189.4L276,189.4z"/>
		</g>
	</g>
	<g id="XMLID_44_" class="st7">
		<g id="XMLID_115_">
			<path id="XMLID_60_" class="st8" d="M300.6,200.5c4.1-1,7.6-3.4,11.6-4.7c4.3-1.4,8.8-2.4,13.4-2.3c4.4,0,9,0.8,13.3,1.5
				c3.8,0.7,7.7,2.2,11.6,2.1c2,0,3.1-2.5,1.7-4c-6.2-6.4-18.3-6.5-26.5-5.2c-8.4,1.3-20.6,3.2-26.4,10.2
				C298.4,199.2,299.2,200.9,300.6,200.5L300.6,200.5z"/>
		</g>
	</g>
	<g id="XMLID_45_" class="st7">
		<g id="XMLID_109_">
			<path id="XMLID_59_" class="st8" d="M306.4,139.6c0.8-6.3-3.4-12.9-7.4-17.5c-3.4-3.9-9.9-10.9-15.5-10.3c-1.7,0.2-3,1.6-2.6,3.4
				c1.1,4.6,6.8,7.2,10.1,10.3c4.9,4.4,6.7,9.1,9,15C301.4,144,305.9,143.2,306.4,139.6L306.4,139.6z"/>
		</g>
	</g>
	<g id="XMLID_50_" class="st7">
		<g id="XMLID_103_">
			<path id="XMLID_58_" class="st8" d="M332.5,141.3c6.2-0.6,11.9,0.3,17.9,1.8c5,1.2,9.9,5,14.9,5.2c1.3,0,2-1.4,1.4-2.5
				c-2.7-4.8-10.8-6.7-15.8-7.7c-6.2-1.2-12.7-0.4-18.7,0.9C330.9,139.3,331.2,141.4,332.5,141.3L332.5,141.3z"/>
		</g>
	</g>
	<g id="XMLID_51_" class="st7">
		<g id="XMLID_96_">
			<path id="XMLID_57_" class="st8" d="M327.8,103.5C327.8,103.5,327.8,103.4,327.8,103.5C327.7,103.4,327.7,103.5,327.8,103.5
				L327.8,103.5z"/>
		</g>
	</g>
	<g id="XMLID_52_" class="st7">
		<g id="XMLID_90_">
			<path id="XMLID_56_" class="st8" d="M330.1,101.4c-0.9-5.2-3-10-6.3-14.2c-2.6-3.3-6.6-7.9-11.2-7.8c-1.3,0.1-2.1,1.4-1.5,2.5
				c1.8,3.4,5.9,5.4,8.2,8.6c2.8,3.7,4.4,7.8,5.1,12.4C325.1,106.5,330.7,105,330.1,101.4L330.1,101.4z"/>
		</g>
	</g>
	<g id="XMLID_53_" class="st7">
		<g id="XMLID_83_">
			<path id="XMLID_55_" class="st8" d="M341.8,111.6c3.2,2.3,7.9,1.1,11.6,1.4c4.1,0.3,8.9,2.3,12.9,1.1c1.2-0.4,1.8-1.8,1.2-2.9
				c-2.5-4.3-8.7-5.1-13.3-5.4c-4.2-0.2-10.7-0.1-12.8,4.2C341.1,110.6,341.2,111.2,341.8,111.6L341.8,111.6z"/>
		</g>
	</g>
	<g id="XMLID_54_" class="st7">
		<g id="XMLID_72_">
			<path id="XMLID_32_" class="st8" d="M348.6,89.2c0.9-1,1.9-1.9,2.8-2.9c0.6-0.6,1-1.2,1-2.1c0-0.5-0.1-1.2-0.5-1.6
				c-1-0.9-2.6-0.3-3.4,0.5c-1,1-1.9,2.2-2.8,3.3c-0.7,0.8-0.8,2,0,2.9C346.5,90,347.9,90,348.6,89.2L348.6,89.2z"/>
		</g>
	</g>
</g>
</svg>
