<?xml version="1.0" encoding="utf-8"?>
<!-- Generator: Adobe Illustrator 19.0.0, SVG Export Plug-In . SVG Version: 6.00 Build 0)  -->
<svg version="1.1" xmlns="http://www.w3.org/2000/svg" xmlns:xlink="http://www.w3.org/1999/xlink" x="0px" y="0px"
	 viewBox="0 0 518.3 538.9" style="enable-background:new 0 0 518.3 538.9;" xml:space="preserve">
<style type="text/css">
	.st0{display:none;}
	.st1{display:inline;}
	.st2{fill:#CFE8CC;}
	.st3{fill:#72AA8B;}
	.st4{fill:#539074;}
	.st5{fill:#99CAAB;}
	.st6{fill:#82D898;}
	.st7{fill:#397748;}
	.st8{fill:#5BA873;}
	.st9{fill:#E8A611;}
	.st10{fill:#F1A463;}
	.st11{fill:#F68D3D;}
	.st12{fill:#F5D796;}
	.st13{fill:none;stroke:#94E8AA;stroke-width:3;stroke-linecap:round;stroke-miterlimit:10;}
	.st14{fill:none;stroke:#94E8AA;stroke-width:5;stroke-linecap:round;stroke-miterlimit:10;}
	.st15{fill:none;stroke:#94E8AA;stroke-width:6;stroke-linecap:round;stroke-miterlimit:10;}
	.st16{fill:none;stroke:#397748;stroke-miterlimit:10;}
</style>
<g id="Layer_1" class="st0">
	<g id="XMLID_3_" class="st1">
		<path id="XMLID_80_" class="st2" d="M-4.3,110.1c-2.9-2.9-8.8,13.8-1.7,42.1c2.8,11.3,9,24.4,15.1,39.8
			c4.4,11.2,9.8,19.3,12.5,26.3c10.6,27,7.8,42,7.1,27.5c-0.8-17.7-1-14.7-3.7-34.9c-1.4-10.6-3.5-22.4-6.1-34.6
			c-2.5-11.7-0.8-24.8-4.9-35.4C9.4,128.6,2.9,117.3-4.3,110.1z"/>
	</g>
	<g id="XMLID_4_" class="st1">
		<path id="XMLID_79_" class="st2" d="M-67.8,147.9c-4-1.1,3.2,11.2,23.4,32.2c8.1,8.4,16.9,19.5,29.9,29.8
			c9.4,7.5,19.2,10.4,25.1,15.1c22.7,18.1,25.6,34.8,17.7,22.6c-9.6-14.9-7.4-12.7-19.9-28.9C2,210.2-1.4,197-9.8,187.8
			c-8-8.8-18.4-15.9-27.2-23.1C-47.2,156.4-58,150.5-67.8,147.9z"/>
	</g>
	<g id="XMLID_5_" class="st1">
		<path id="XMLID_77_" class="st2" d="M-103.9,208.7c-4,1.1,8.1,12.4,36.2,20.5c11.2,3.2,25.1,6.4,41.4,8.9
			c11.9,1.8,21.2,3.6,28.7,4.7c28.7,4.3,41.8,9.6,28.9,2.9C15.6,237.6,18.8,236.9,0,229c-9.9-4.1-23.1-3.5-35-7.2
			c-11.4-3.6-22.5-7.7-33.7-9.5C-81.7,210.2-94.1,206.1-103.9,208.7z"/>
	</g>
	<g id="XMLID_6_" class="st1">
		<path id="XMLID_75_" class="st2" d="M-102.7,282.9c-2.9,2.9,11.8,5.8,40.1-1.3c11.3-2.8,23.8-10,39.2-16.1
			c11.2-4.4,19.6-8.8,26.7-11.6c27-10.6,42.6-6.1,28.1-5.4c-17.7,0.8-14.6,1.6-34.8,4.2c-10.6,1.4-23.4-1.1-35.5,1.5
			c-11.7,2.5-23.2,6.7-33.7,10.7C-85,269.7-95.5,275.7-102.7,282.9z"/>
	</g>
	<g id="XMLID_7_" class="st1">
		<path id="XMLID_73_" class="st2" d="M-68.3,344.4c-1.1,4,14.7-0.9,35.7-21.2c8.4-8.1,14.5-21.4,24.8-34.3
			c7.5-9.4,16.4-14.5,21.1-20.4c18.1-22.7,28.5-33.3,16.3-25.5c-14.9,9.6-10.7,11-26.9,23.5c-8.5,6.5-18.8,13.4-28,21.7
			c-8.8,8-19.5,15.2-26.6,23.9C-60.2,322.4-65.6,334.5-68.3,344.4z"/>
	</g>
	<g id="XMLID_8_" class="st1">
		<path id="XMLID_71_" class="st2" d="M-6.7,381.2c1.1,4,13.1-8.5,21.2-36.6c3.2-11.2,7.2-24.9,9.6-41.3c1.8-11.9,3.5-21.2,4.7-28.7
			C33,246,40.3,234,33.6,246.9c-8.1,15.7-5.7,13.5-13.5,32.4C16,289.2,11,300.1,7.2,312c-3.6,11.4-13.1,21.7-14.9,32.8
			C-9.7,357.9-9.4,371.4-6.7,381.2z"/>
	</g>
	<g id="XMLID_9_" class="st1">
		<path id="XMLID_69_" class="st2" d="M65.8,382.4c2.9,2.9,3.2-13.2-3.9-41.5c-2.8-11.3-3.5-25.6-9.5-41
			c-4.4-11.2-9.5-19.4-12.3-26.4c-10.6-27-8.4-42.3-7.7-27.8c0.8,17.7-3.1,15.3-0.4,35.6c1.4,10.6,7.8,22,10.4,34.1
			c2.5,11.7,7.7,22.4,11.7,33C58.8,360.7,58.6,375.2,65.8,382.4z"/>
	</g>
	<g id="XMLID_10_" class="st1">
		<path id="XMLID_67_" class="st2" d="M130.4,343.8c4,1.1-2.8-11.8-23.1-32.8c-8.1-8.4-18.3-17.9-31.3-28.2
			c-9.4-7.5-18.4-11.4-24.3-16.1C28.9,248.7,21.2,235,29,247.2c9.6,14.9,8.8,12.3,21.2,28.5c6.5,8.5,17.7,15,26.1,24.2
			c8,8.8,16.3,17.2,25.1,24.4C111.7,332.7,120.5,341.2,130.4,343.8z"/>
	</g>
	<g id="XMLID_11_" class="st1">
		<path id="XMLID_65_" class="st2" d="M165.5,278.6c4-1.1-7.2-7.7-35.3-15.7c-11.2-3.2-25-6-41.4-8.4c-11.9-1.8-21.4-2-28.9-3.1
			c-28.7-4.3-40.7-13.7-27.8-7.1c15.7,8.1,11.3,11.3,30.2,19.1c9.9,4.1,23.3,3.2,35.2,6.9c11.4,3.6,22.5,8.2,33.7,10
			C144.2,282.5,155.6,281.3,165.5,278.6z"/>
	</g>
	<g id="XMLID_12_" class="st1">
		<path id="XMLID_63_" class="st2" d="M168.1,211.3c2.9-2.9-14.7-9-43-1.9c-11.3,2.8-24.1,9.4-39.5,15.5
			c-11.2,4.4-20.9,5.6-27.9,8.4c-27,10.6-40.9,12.2-26.3,11.5c17.7-0.8,14.5-3.2,34.8-5.9c10.6-1.4,23.2,0.3,35.3-2.3
			c11.7-2.5,23.4-5.8,34-9.8C147.7,221.9,160.9,218.5,168.1,211.3z"/>
	</g>
	<g id="XMLID_13_" class="st1">
		<path id="XMLID_61_" class="st2" d="M126.9,146c1.1-4-12.1,0.6-33.1,20.9c-8.4,8.1-16.5,20.1-26.8,33.1
			c-7.5,9.4-14.8,15.7-19.5,21.6c-18.1,22.7-27.3,33.8-15.1,26c14.9-9.6,12.8-8.1,29-20.6c8.5-6.5,14.4-18.5,23.6-26.8
			c8.8-8,18.9-14.8,26.1-23.6C119.5,166.3,124.3,155.8,126.9,146z"/>
	</g>
	<g id="XMLID_14_" class="st1">
		<path id="XMLID_59_" class="st2" d="M65.7,111.2c-1.1-4-8.7,7.7-16.8,35.8c-3.2,11.2-8,24.7-10.5,41.1c-1.8,11.9-1.7,21.5-2.8,29
			c-4.3,28.7-9.7,42.3-3.1,29.4c8.1-15.7,6.8-13.4,14.6-32.3c4.1-9.9,3.8-22.9,7.6-34.8c3.6-11.4,12.7-21.6,14.5-32.8
			C71.5,133.4,68.3,121,65.7,111.2z"/>
	</g>
	<g id="XMLID_2_" class="st1">
		<path id="XMLID_58_" class="st3" d="M-58.7,90c-3.8-2.2-5.3,12.2,5.3,34.9c4.2,9,13.4,17.9,20.9,30c5.7,9.2,8.5,22.1,16.5,32.8
			c9.2,12.4,20.8,19,26.6,26.8c22.2,30.1,26.2,49,20.5,31.2c-5.6-17.3-2.4-15.1-10.4-35c-4-10-7.4-22.4-13-34.3
			c-5-10.7-15.4-19.4-21.5-30c-6.3-10.9-9-24.2-16.1-33.2C-38.3,102.8-49.4,95.4-58.7,90z"/>
	</g>
	<g id="XMLID_15_" class="st1">
		<path id="XMLID_60_" class="st4" d="M-124.5,153.1c-4.3,0,2.2,15,22.8,29.4c8.2,5.7,17.7,13.9,30.2,20.6
			c9.6,5.1,21.2,9.3,33.4,14.7c14.2,6.2,26.4,8.7,35.3,12.6c34.3,14.9,47.4,28.6,33.6,16c-13.5-12.2-12.1-8.6-29-21.9
			c-8.5-6.7-17.3-15.6-28.1-23.1c-9.7-6.8-18.6-16-29.2-22.1c-10.9-6.3-21.8-13.2-32.4-17.4C-100.5,156.8-113.8,153.1-124.5,153.1z"
			/>
	</g>
	<g id="XMLID_16_" class="st1">
		<path id="XMLID_62_" class="st5" d="M-149.9,243.5c-3.8,2.2,9.2,12.4,34.3,14.5c9.9,0.8,22.1-3.2,36.3-3.7
			c10.8-0.4,23.1,1.9,36.3,0.4c15.3-1.7,27.7-1.7,37.3-2.8c37.2-4.2,54.4,1.4,36.1-2.5c-17.8-3.9-13.8-6.8-35.1-9.9
			c-10.7-1.6-22.9-4.8-36-5.9c-11.8-1-24.3-3.2-36.5-3.2c-12.6,0-24.5,6.8-35.9,8.5C-126.3,240.9-140.6,238.2-149.9,243.5z"/>
	</g>
	<g id="XMLID_17_" class="st1">
		<path id="XMLID_64_" class="st3" d="M-120.9,337.7c-2.2,3.8,7.8,1.4,30.5-9.3c9-4.2,18.2-12.5,30.2-20
			c9.2-5.7,20.7-10.1,31.5-18.1c12.4-9.2,24-14.1,31.8-19.8C33.2,248.3,49.8,242,32,247.7c-17.3,5.6-14.2,4.2-34.2,12.1
			c-10,4-21.6,8.5-33.5,14.1c-10.7,5-22.4,9.3-32.9,15.4c-10.9,6.3-22,12.1-31,19.3C-110.2,317.1-115.5,328.5-120.9,337.7z"/>
	</g>
	<g id="XMLID_18_" class="st1">
		<path id="XMLID_66_" class="st4" d="M-57.6,401.5c0,4.3,10.7-2.6,25-23.2c5.7-8.2,11.6-18.8,18.2-31.4c5.1-9.6,7.3-21.8,12.6-34
			c6.2-14.2,16.1-23.2,19.9-32.1c14.9-34.3,25.3-49.3,12.7-35.4c-12.2,13.5-8.6,12.2-21.9,29.1c-6.7,8.5-13.3,19-20.8,29.8
			C-18.5,314-28.9,322-35,332.6c-6.3,10.9-13.8,21.5-18,32.2C-58,377.3-57.6,390.8-57.6,401.5z"/>
	</g>
	<g id="XMLID_19_" class="st1">
		<path id="XMLID_68_" class="st5" d="M33.9,424.1c2.2,3.8,6.8-6.5,9-31.6c0.8-9.9,3.3-22.3,2.9-36.5c-0.4-10.8-2.6-23-4.1-36.3
			c-1.7-15.3-5.8-27.2-6.9-36.9c-4.2-37.2,1.8-55.2-2.2-37c-3.9,17.8-1.3,14.8-4.4,36.1c-1.6,10.7-3.1,22.9-4.2,36
			c-1,11.8-2.4,23.9-2.4,36.1c0,12.6,0.2,24.6,1.9,36C25.6,403.5,28.6,414.8,33.9,424.1z"/>
	</g>
	<g id="XMLID_20_" class="st1">
		<path id="XMLID_70_" class="st3" d="M122.4,399.6c3.8,2.2,0.9-8.8-9.8-31.5c-4.2-9-11.9-18.3-19.5-30.4
			c-5.7-9.2-6.8-23.1-14.7-33.8c-9.2-12.4-16.4-22.3-22.2-30.1c-22.2-30.1-27.1-47-21.4-29.2c5.6,17.3-2.1,16.6,5.9,36.6
			c4,10,13.7,19.5,19.3,31.4c5,10.7,5.7,24.4,11.8,35c6.3,10.9,19,17.2,26.2,26.2C106.5,384.2,113.1,394.2,122.4,399.6z"/>
	</g>
	<g id="XMLID_21_" class="st1">
		<path id="XMLID_72_" class="st4" d="M187.1,338c4.3,0-1.4-15.7-22-30.1c-8.2-5.7-19.5-10.8-32.1-17.5
			c-9.6-5.1-20.1-11.4-32.3-16.7c-14.2-6.2-27.5-6.1-36.4-10c-34.3-14.9-45.4-32.1-31.6-19.5c13.5,12.2,9.2,12.1,26.1,25.5
			c8.5,6.7,19.1,13.4,29.8,20.9c9.7,6.8,20.1,13.6,30.6,19.7c10.9,6.3,21.1,13.9,31.8,18.1C163.6,333.3,176.4,338,187.1,338z"/>
	</g>
	<g id="XMLID_22_" class="st1">
		<path id="XMLID_74_" class="st5" d="M211,245.3c3.8-2.2-7.8-9.7-32.8-11.8c-9.9-0.8-22.2,1.3-36.4,1.8c-10.8,0.4-22.7,2.6-36,4.1
			c-15.3,1.7-28.2-2.7-37.8-1.6c-37.2,4.2-54.5,1.9-36.2,5.8c17.8,3.9,13.7,8.1,35,11.2c10.7,1.6,23.7-2.2,36.8-1.1
			c11.8,1,24,8.1,36.2,8.1c12.6,0,24.7-6.1,36.1-7.8C189.1,251.8,201.7,250.7,211,245.3z"/>
	</g>
	<g id="XMLID_23_" class="st1">
		<path id="XMLID_76_" class="st3" d="M188.7,156.7c2.2-3.8-11.2-0.7-34,10c-9,4.2-22.9,4.1-34.9,11.6c-9.2,5.7-19.9,12.1-30.6,20
			c-12.4,9.2-20.5,18.8-28.3,24.6c-30.1,22.2-47,29.7-29.2,24c17.3-5.6,14.1-5.1,34.1-13c10-4,21-10.1,32.9-15.7
			c10.7-5,22.9-8.6,33.4-14.7c10.9-6.3,20.5-14.3,29.5-21.5C172.1,173.4,183.4,166,188.7,156.7z"/>
	</g>
	<g id="XMLID_24_" class="st1">
		<path id="XMLID_78_" class="st4" d="M119.7,89.9c0-4.3-10.3,2.4-24.7,23.1c-5.7,8.2-13,18.1-19.6,30.7
			c-5.1,9.6-8.8,21.3-14.1,33.6c-6.2,14.2-8.2,26.6-12,35.5c-14.9,34.3-28.1,49-15.6,35.1c12.2-13.5,5.8-14.7,19.1-31.6
			c6.7-8.5,13.2-19,20.7-29.8c6.8-9.7,17.4-17.5,23.5-28.1c6.3-10.9,8.6-23.4,12.8-34.1C114.7,111.8,119.7,100.6,119.7,89.9z"/>
	</g>
	<g id="XMLID_25_" class="st1">
		<path id="XMLID_81_" class="st5" d="M30.7,66.2c-2.2-3.8-6.5,7.9-8.6,32.9c-0.8,9.9-0.9,21.9-0.4,36.1c0.4,10.8-3.8,23.4-2.3,36.6
			c1.7,15.3,9,26.8,10.1,36.5c4.2,37.2-2.8,55.6,1.2,37.3c3.9-17.8,7.5-13.9,10.6-35.2c1.6-10.7-2.8-23.8-1.7-36.9
			c1-11.8,5-24,5-36.2c0-12.6-1-25.1-2.7-36.4C39.8,87.5,36.1,75.4,30.7,66.2z"/>
	</g>
</g>
<g id="Layer_4">
</g>
<g id="Layer_2">
	<path id="XMLID_82_" class="st6" d="M324.2,507.7c2-16.4,2.4-30.2,2.4-39.9c0-17.8-1.1-73.3-26.3-144.9c-2-5.7-3.7-10.2-4.8-13
		c-0.7-1.5-1.8-3.4-3.4-4.2c-5.8-2.9-14.9,9.7-34.6,54.9c-19.6,45.1-30.1,67.6-28.1,82.5C233.6,474.3,283.7,595.2,324.2,507.7z"/>
	<path id="XMLID_84_" class="st6" d="M422.2,46.6c-10.2,14-17.7,26.3-22.6,35c-9.1,16-36.1,66.6-47.8,141.8
		c-0.9,5.9-1.6,10.8-1.9,13.7c-0.1,1.7,0,3.8,1.1,5.2c4.2,5,19.5-2.6,61.6-35.2c42-32.6,63.6-48.5,69.3-62.8
		C493.6,114.5,506.1-15.5,422.2,46.6z"/>
	<path id="XMLID_32_" class="st7" d="M132.4,409.9c13.4-12.5,23.4-23.6,30-31.3c12.2-14.3,49-59.5,70.2-125.8
		c1.7-5.2,2.9-9.5,3.6-12.1c0.3-1.5,0.4-3.3-0.8-4.5c-4.4-4.3-23.2,2.8-75.9,32.6c-52.6,29.7-79.6,44.3-87.6,57
		C55.1,352.4,27.6,466.8,132.4,409.9z"/>
	<path id="XMLID_29_" class="st8" d="M105.2,92.8c11.1,14.9,21.3,26.3,28.5,34c13.3,14.1,55.8,56.9,124.7,88.7
		c5.4,2.5,9.9,4.4,12.6,5.6c1.6,0.5,3.6,1,5.2,0c5.6-3.4,1.7-22.5-20.5-77.8c-22.1-55.2-32.7-83.3-45.1-93.2
		C184.7,29.6,63.8-16.6,105.2,92.8z"/>
	<path id="XMLID_31_" class="st7" d="M508.7,376.4c-10.3-10.9-19.6-19.1-26.2-24.6c-12.1-10.1-50.7-40.7-111-61
		c-4.8-1.6-8.7-2.8-11-3.5c-1.4-0.3-3.1-0.5-4.4,0.3c-4.6,3-0.1,17.6,22,59.3c22,41.5,32.7,62.8,43.8,69.7
		C445.1,430.9,550.3,459,508.7,376.4z"/>
	<ellipse id="XMLID_1_" class="st9" cx="278.3" cy="254.1" rx="20" ry="19.1"/>
	<ellipse id="XMLID_26_" class="st9" cx="315.7" cy="233.7" rx="20" ry="19.1"/>
	<ellipse id="XMLID_27_" class="st9" cx="312.3" cy="277.8" rx="20" ry="19.1"/>
	<path id="XMLID_28_" class="st10" d="M74-99.5"/>
	<g id="XMLID_30_">
		<path id="XMLID_131_" class="st10" d="M357.1,89.5"/>
	</g>
	<path id="XMLID_57_" class="st7" d="M310,15.2c-5.1,13.5-8.5,25.4-10.6,33.9c-4,15.5-15.5,64.7-13.4,138.7
		c0.2,5.8,0.4,10.6,0.5,13.5c0.1,1.6,0.5,3.8,1.5,5.2c3.5,5.1,12.9-1.9,37.2-32.8c24.2-30.8,36.7-45.9,38.6-59.9
		C367.8,84.6,358.7-43.5,310,15.2z"/>
	<path id="XMLID_83_" class="st6" d="M30.7,283.9c15.5-0.9,28.5-2.8,37.5-4.3c16.7-2.9,68.8-13.2,135-48.3c5.2-2.8,9.4-5.1,12-6.6
		c1.4-0.9,3.1-2.2,3.8-3.8c2.5-5.8-9.7-12.2-53-22.9c-43.2-10.7-64.7-16.7-78.6-12.4C58.3,194.7-53.2,261,30.7,283.9z"/>
	<path id="XMLID_85_" class="st8" d="M465.7,225.9c-8.1,1.5-14.9,3.3-19.7,4.8c-8.8,2.6-36.2,11.4-72.1,34.1
		c-2.8,1.8-5.1,3.3-6.5,4.2c-0.8,0.6-1.7,1.3-2.1,2.2c-1.5,3.2,4.5,5.7,26.5,8.4c21.9,2.7,32.8,4.4,40.2,1.2
		C447.5,274.2,508.2,232.2,465.7,225.9z"/>
	<path id="XMLID_86_" class="st7" d="M383.5,394.3c-3.1-7.6-6.3-13.9-8.7-18.3c-4.3-8.1-18.6-33.1-48.1-63.6
		c-2.3-2.4-4.3-4.3-5.5-5.5c-0.7-0.6-1.7-1.4-2.6-1.6c-3.4-0.9-4.7,5.6-2.8,27.6c1.8,22,2.4,33,7,39.6
		C332.5,386.3,385.9,437.1,383.5,394.3z"/>
	<path id="XMLID_87_" class="st8" d="M226.8,393.1c4.1-7.1,7.1-13.5,9.1-18c3.7-8.4,14.8-35,20.9-77c0.5-3.3,0.8-6,1-7.7
		c0.1-0.9,0.1-2.2-0.3-3.1c-1.4-3.2-7.3-0.3-23.6,14.7c-16.3,14.9-24.6,22.1-27,29.8C201.9,347.9,194.4,421.3,226.8,393.1z"/>
	<path id="XMLID_88_" class="st11" d="M-143.7,173.7"/>
	<ellipse id="XMLID_89_" class="st12" cx="312.3" cy="237.1" rx="15.7" ry="15.1"/>
	<ellipse id="XMLID_90_" class="st12" cx="281.7" cy="250.7" rx="14" ry="13.4"/>
	<ellipse id="XMLID_92_" class="st12" cx="308.9" cy="274.4" rx="13.9" ry="13.3"/>
	<path id="XMLID_93_" class="st8" d="M-79.3,219.7"/>
</g>
<g id="Layer_3">
	<path id="XMLID_159_" class="st8" d="M370.7,175"/>
	<path id="XMLID_140_" class="st13" d="M391,136.5"/>
	<path id="XMLID_133_" class="st14" d="M458.4,45.7c-37.4,11.9-54.3,62-54.3,62c-1.8,5.4-3.3,9.8-4.4,13.3"/>
	<path id="XMLID_132_" class="st15" d="M121.6,207.3c0,0-30.3-8.5-73.6,21.1"/>
	<path id="XMLID_104_" class="st16" d="M322.8,30c0,0-6,3.4-10.5,98"/>
	<path id="XMLID_102_" class="st15" d="M259.7,399.5c0,0-19.1,42.7,0,72"/>
</g>
</svg>
