<?xml version="1.0" encoding="utf-8"?>
<!-- Generator: Adobe Illustrator 19.0.0, SVG Export Plug-In . SVG Version: 6.00 Build 0)  -->
<svg version="1.1" xmlns="http://www.w3.org/2000/svg" xmlns:xlink="http://www.w3.org/1999/xlink" x="0px" y="0px"
	 viewBox="0 0 491.2 487" style="enable-background:new 0 0 491.2 487;" xml:space="preserve">
<style type="text/css">
	.st0{display:none;}
	.st1{display:inline;fill:#FFFFFF;stroke:#000000;stroke-miterlimit:10;}
	.st2{fill:#D25B46;}
	.st3{fill:#CA4D46;}
	.st4{fill:#E79D82;}
	.st5{fill:#E7A68D;}
</style>
<g id="Layer_4" class="st0">
	<path id="XMLID_1_" class="st1" d="M-51.9,138.7c-6.1,13-17.9,25.1-19.7,39.4c-1.8,14.7,2.7,44.1,24.4,37.7
		c13.8-4,16.7-22.5,14.8-34.8C-33.9,170.9-41.2,141.3-51.9,138.7z"/>
</g>
<g id="Layer_2">
	<g id="XMLID_2_">
		<path id="XMLID_79_" class="st2" d="M126.2,28.4c1.8,21-5.3,40.6-5.8,62.8c-0.6,22.5-0.1,44.8,8.4,64.7
			c8.5,19.9,21.9,52.4,43.1,68.7c21.9,16.7,49.5,13.9,73-10.7c14.9-15.5,24.6-34.8,20.3-55.4c-4.3-20.2-16.6-41.5-28-55.7
			c-9.3-11.7-36.1-25.6-57.3-43.4C157.3,40.6,142.3,23.7,126.2,28.4z"/>
	</g>
	<g id="XMLID_3_">
		<path id="XMLID_78_" class="st3" d="M37.6,113.5c12,17.3,7.7,41.3,18.3,60.8c10.8,19.8,30.7,32.8,47.9,45.8
			c17.3,13,43.6,33.6,70.2,37.1c27.3,3.5,56.6-7.4,64.7-40.5c5.1-20.9-12.9-35.7-26.9-51.3c-13.8-15.3-26.3-34.6-43.3-41.2
			c-13.9-5.4-42.9-8.9-70.2-13.7C69.5,105.3,49.1,101.4,37.6,113.5z"/>
	</g>
	<g id="XMLID_4_">
		<path id="XMLID_76_" class="st2" d="M0,232.5c19.1,9,35.2,20.7,54.1,32.3c19.2,11.8,36.3,26.9,57.7,29.5
			c21.5,2.6,54.7,2.9,79.4-7.4c25.4-10.6,40.6-32.5,31.1-65.2c-6-20.7-21.4-34-41.4-40.5c-19.6-6.4-42.2-5.2-60.1-2.5
			c-14.8,2.3-44.9,2.5-70.9,12C22.4,200.9,4,216.3,0,232.5z"/>
	</g>
	<g id="XMLID_5_">
		<path id="XMLID_74_" class="st2" d="M26.6,357c21-1.8,42.7,1.3,64.9,1.9c22.5,0.6,43.6-2.7,63.4-11.2
			c19.9-8.5,52.1-20.1,68.4-41.4c16.7-21.9,22.4-55.5-2.2-79.1c-15.5-14.9-42.4-20.4-63-16c-20.2,4.3-37,24.5-51.2,35.9
			c-11.7,9.3-31.9,29.2-49.7,50.5C38.5,320.1,22,340.9,26.6,357z"/>
	</g>
	<g id="XMLID_18_">
		<path id="XMLID_72_" class="st3" d="M231.3,189.9c41.7-9.4,70.2,22.8,57.5,63.6s-43.8,36.9-81.3,16.4
			C165.7,247.2,189.6,199.3,231.3,189.9z"/>
	</g>
	<g id="XMLID_6_">
		<path id="XMLID_70_" class="st2" d="M113.9,444.8c17.3-12,36.3-19.8,55.8-30.4c19.8-10.8,38.6-20.9,51.6-38.1
			c13-17.3,32.7-44.3,36.1-70.8c3.5-27.3-8.9-50.4-41.9-58.5c-20.9-5.1-34.6,6.3-50.2,20.3c-15.3,13.8-30.6,28.1-37.2,45.1
			c-5.4,13.9-18.7,40.4-23.5,67.7C99.6,408.9,101.8,433.2,113.9,444.8z"/>
	</g>
	<g id="XMLID_7_">
		<path id="XMLID_68_" class="st3" d="M237.4,487c9-19.1,24.1-37.9,35.7-56.8c11.8-19.2,11.7-42,14.3-63.5
			c2.6-21.5,15-55.9,4.7-80.6c-10.6-25.4-35.6-32.3-68.3-22.8c-20.7,6-43.4,12.6-49.9,32.6c-6.4,19.6,7.9,43.8,10.7,61.8
			c2.3,14.8,0.3,44.6,9.8,70.6C204.5,455.8,221.2,483,237.4,487z"/>
	</g>
	<g id="XMLID_8_">
		<path id="XMLID_66_" class="st2" d="M361.2,454.9c-1.8-21-5.8-45-5.2-67.1c0.6-22.5,4.5-45.2-4-65c-8.5-19.9-30.4-42.1-51.7-58.4
			c-21.9-16.7-45.9-27.5-69.5-3c-14.9,15.5-23.5,39.3-19.1,59.8c4.3,20.2,21.7,39.1,33.1,53.3c9.3,11.7,34.5,26.7,55.7,44.5
			C323,437.8,345.2,459.6,361.2,454.9z"/>
	</g>
	<g id="XMLID_9_">
		<path id="XMLID_64_" class="st2" d="M448.1,365.5c-12-17.3-26.4-34.2-37-53.7c-10.8-19.8-11.3-48.5-28.5-61.5
			c-17.3-13-51.6-14.5-78.1-17.9c-27.3-3.5-51.4-2-59.5,31c-5.1,20.9-1.3,44.1,12.7,59.7c13.8,15.3,40,16.8,56.9,23.4
			c13.9,5.4,39.7,16.4,67,21.2C410.5,372.8,436.5,377.6,448.1,365.5z"/>
	</g>
	<g id="XMLID_11_">
		<path id="XMLID_63_" class="st2" d="M491.2,239.7c-19.1-9-42.1-21.2-61-32.8c-19.2-11.8-41.4-14.3-62.8-16.9
			c-21.5-2.6-49.5,2.9-74.2,13.2c-25.4,10.6-46.9,21.9-37.4,54.6c6,20.7,23.6,31.9,43.5,38.4c19.6,6.4,40.9,2.2,58.9-0.6
			c14.8-2.3,46.9,5.7,72.9-3.8C458.7,281.8,487.2,256,491.2,239.7z"/>
	</g>
	<g id="XMLID_12_">
		<path id="XMLID_65_" class="st3" d="M451.3,122.4c-21,2.1-41.8-2.3-63.9-2.5c-22.5-0.2-46-2.3-65.7,6.4
			c-19.8,8.8-51.3,25.1-67.2,46.6c-16.4,22.2-16.1,53.5,8.8,76.7c15.8,14.6,39.2,23,59.6,18.3c20.1-4.6,34.1-27.8,48.1-39.4
			c11.5-9.5,41.3-20.6,58.8-42.2C448.3,163.5,456.2,138.3,451.3,122.4z"/>
	</g>
	<g id="XMLID_14_">
		<path id="XMLID_67_" class="st2" d="M365.9,33.8c-17.3,12-35.8,21.2-55.3,31.8c-19.8,10.8-37.1,21.5-50.1,38.7
			c-13,17.3-37.6,42.4-41.1,69c-3.5,27.3,11.8,51.1,44.9,59.2c20.9,5.1,41.3,0.8,56.9-13.3c15.3-13.8,24.8-35.2,31.4-52.1
			c5.4-13.9,22.5-39.9,27.3-67.2C385,71,378,45.3,365.9,33.8z"/>
	</g>
	<g id="XMLID_40_">
		<path id="XMLID_69_" class="st4" d="M247.1,0c-9,19.1-20.1,35.4-31.7,54.3c-11.8,19.2-28.8,35.6-31.4,57.1
			c-2.4,19.4-0.9,48.2,7,71.6c8.3,24.7,25.3,39.3,51.6,38.4c4.7-0.2,9.9,3.3,15.4,1.7c20.7-6,40.5-20.3,47-40.2
			c6.4-19.6,6.4-45.6,3.6-63.6c-2.3-14.8-17.6-41.1-27.1-67.2C271.6,24.6,263.4,4,247.1,0z"/>
	</g>
	<g id="XMLID_16_">
		<path id="XMLID_71_" class="st4" d="M22.2,359.7c21-1.8,44.8,1.6,67,2.2c22.5,0.6,41.7-11.7,61.6-20.1c18-7.6,47.9-12.6,64.3-31.2
			c17.2-19.6,25.4-47,11.5-69.4c-2.5-4-10.1-4.4-14.2-8.4c-15.5-14.9-34.1-18.9-54.6-14.5c-20.2,4.3-41.8,12.4-56,23.8
			c-11.7,9.3-33.3,29.3-51.1,50.5C31.9,315.1,17.5,343.7,22.2,359.7z"/>
	</g>
	<g id="XMLID_17_">
		<path id="XMLID_73_" class="st4" d="M442.9,366.8c-12-17.3-23-34.5-33.6-54C398.6,293,396.5,266,379.3,253
			c-15.6-11.8-45.2-15.1-69.4-20c-25.6-5.2-53.5-8.2-65.8,15c-2.2,4.2,5.2,12.5,3.9,18c-5.1,20.9-7.9,44.1,6.2,59.7
			c13.8,15.3,39.3,20.9,56.2,27.5c13.9,5.4,41.4,13.5,68.7,18.3C407.8,376.6,431.4,378.9,442.9,366.8z"/>
	</g>
	<g id="XMLID_15_">
		<path id="XMLID_75_" class="st5" d="M58.6,340.9c31.1-1.4,71.1,8.7,99.6-3c26.7-11,71.6-50.7,50.2-85.3c-2-3.2-4.9-7.2-8-10.4
			c-23.6-23.9-64.7-8.4-85,8.4C98.3,264.8,50.9,316.4,58.6,340.9z"/>
	</g>
	<g id="XMLID_19_">
		<path id="XMLID_77_" class="st5" d="M413.5,342.8c-16.8-26.2-26-65.5-50.3-84.4c-22.9-17.7-75.3-34.7-94.5,1.1
			c-1.8,3.3-2.6,7-3.8,11.3c-8.8,32.4,20.1,57.5,44.9,66.8C330.5,345.4,396.2,361.8,413.5,342.8z"/>
	</g>
	<g id="XMLID_20_">
		<path id="XMLID_80_" class="st5" d="M244.4,38.6c-14.3,27.6-42.3,53.8-46.5,84.3c-3.9,28.6,5,80.1,45.7,78.9
			c3.8-0.1,7.8,2.1,12.1,1c32.5-8.5,34.8-46.7,30.4-72.7C282.4,108.3,269.5,44.2,244.4,38.6z"/>
	</g>
</g>
<g id="Layer_5">
</g>
</svg>
