<?xml version="1.0" encoding="utf-8"?>
<!-- Generator: Adobe Illustrator 19.0.0, SVG Export Plug-In . SVG Version: 6.00 Build 0)  -->
<svg version="1.1" xmlns="http://www.w3.org/2000/svg" xmlns:xlink="http://www.w3.org/1999/xlink" x="0px" y="0px"
	 viewBox="0 0 773.7 780.1" style="enable-background:new 0 0 773.7 780.1;" xml:space="preserve">
<style type="text/css">
	.st0{fill:#FCE275;}
	.st1{fill:#FFF688;}
	.st2{fill:#FFC969;}
	.st3{fill:#F98967;}
	.st4{fill:#F56262;}
</style>
<g id="Layer_5">
	<g id="XMLID_42_">
		<path id="XMLID_176_" class="st0" d="M146.7,101.5C7,187.9,132.5,293.3,327.7,345.4C467.5,258.4,347,159,146.7,101.5z"/>
	</g>
	<g id="XMLID_41_">
		<path id="XMLID_175_" class="st0" d="M28.6,262.6c-77.7,144.7,85.6,174.2,280.6,121.7C386.3,238.1,230.8,212.2,28.6,262.6z"/>
	</g>
	<g id="XMLID_40_">
		<path id="XMLID_173_" class="st0" d="M6.8,461.7c5,164.1,160.2,108.1,302.8-34.8C302.6,261.3,156.8,317,6.8,461.7z"/>
	</g>
	<g id="XMLID_39_">
		<path id="XMLID_171_" class="st0" d="M91.4,643.4c86.4,139.6,191.5,14.3,243.6-180.8C248.6,322.8,148.9,443.1,91.4,643.4z"/>
	</g>
	<g id="XMLID_38_">
		<path id="XMLID_169_" class="st0" d="M252.7,760.2c144.7,77.7,173.5-84.4,121.1-279.4C229,403,202.4,558,252.7,760.2z"/>
	</g>
	<g id="XMLID_37_">
		<path id="XMLID_167_" class="st0" d="M450.9,779.7c164.1-5,108.2-158.1-34.8-300.8C252.2,483.3,306.2,629.8,450.9,779.7z"/>
	</g>
	<g id="XMLID_36_">
		<path id="XMLID_165_" class="st0" d="M632.6,699c139.6-86.4,16.2-188.5-178.9-240.6C313.9,544.7,432.3,641.5,632.6,699z"/>
	</g>
	<g id="XMLID_35_">
		<path id="XMLID_163_" class="st0" d="M748,537c77.7-144.7-81.8-172.2-276.8-119.7C392.8,560.8,545.8,587.3,748,537z"/>
	</g>
	<g id="XMLID_34_">
		<path id="XMLID_161_" class="st0" d="M769.4,339.6c-5-164.1-155.4-108.2-298,34.7C476,538.4,619.4,484.3,769.4,339.6z"/>
	</g>
	<g id="XMLID_33_">
		<path id="XMLID_159_" class="st0" d="M686.9,158.8c-86.4-139.6-188.3-16.3-240.3,178.8C531.5,477.2,629.4,359,686.9,158.8z"/>
	</g>
	<g id="XMLID_32_">
		<path id="XMLID_157_" class="st0" d="M527.6,40c-144.7-77.7-173.3,83.8-120.8,278.9C552.4,396.2,577.9,242.2,527.6,40z"/>
	</g>
	<g id="XMLID_31_">
		<path id="XMLID_155_" class="st0" d="M328.9,22.6c-164.1,5-108.3,153.2,34.6,295.9C526.9,314.8,473.6,172.6,328.9,22.6z"/>
	</g>
</g>
<g id="Layer_2">
	<g id="XMLID_3_">
		<path id="XMLID_162_" class="st1" d="M182,60.4C33,129.5,143.5,245.9,331,320.9C480,252.8,374,141.4,182,60.4z"/>
	</g>
	<g id="XMLID_6_">
		<path id="XMLID_151_" class="st1" d="M46.4,205.7C-48,340,108.8,387.6,308.7,358.8C403.3,224.5,253.2,179.8,46.4,205.7z"/>
	</g>
	<g id="XMLID_7_">
		<path id="XMLID_147_" class="st1" d="M0.9,399.7c-14.6,163.6,147.2,126.5,305.9,1.7C320.6,236.9,167.1,274,0.9,399.7z"/>
	</g>
	<g id="XMLID_8_">
		<path id="XMLID_143_" class="st1" d="M61.3,590.1c69.1,149,186.3,38.1,261.3-149.4C253.3,291.6,142.3,398.2,61.3,590.1z"/>
	</g>
	<g id="XMLID_9_">
		<path id="XMLID_139_" class="st1" d="M208.3,724.5c134.3,94.4,181.1-61.2,152.3-261.1C226.9,368.6,182.5,517.7,208.3,724.5z"/>
	</g>
	<g id="XMLID_10_">
		<path id="XMLID_136_" class="st1" d="M402.3,767.2c163.6,14.6,126-141,1.1-299.7C240.7,451.7,276.5,601.1,402.3,767.2z"/>
	</g>
	<g id="XMLID_11_">
		<path id="XMLID_134_" class="st1" d="M592.4,710.2c149-69.1,37.9-186.7-149.6-261.7C293.6,517.8,400.4,629.2,592.4,710.2z"/>
	</g>
	<g id="XMLID_12_">
		<path id="XMLID_132_" class="st1" d="M728,564.1c94.4-134.3-59.9-180.2-259.8-151.4C373.8,547.5,521.2,589.9,728,564.1z"/>
	</g>
	<g id="XMLID_13_">
		<path id="XMLID_130_" class="st1" d="M772.7,369.5c14.6-163.6-142.4-126.1-301.1-1.2C457.8,532.7,606.6,495.3,772.7,369.5z"/>
	</g>
	<g id="XMLID_14_">
		<path id="XMLID_126_" class="st1" d="M714.6,178.1C645.5,29.1,523,142.5,448,330C519.2,479.5,633.6,370.1,714.6,178.1z"/>
	</g>
	<g id="XMLID_15_">
		<path id="XMLID_122_" class="st1" d="M566.4,43.3C432.1-51.1,384.2,106.2,413,306C548.1,400.4,592.3,250.1,566.4,43.3z"/>
	</g>
	<g id="XMLID_16_">
		<path id="XMLID_118_" class="st1" d="M371.6,1c-163.6-14.6-126,141.7-1.2,300.4C533.6,316.6,497.3,167.1,371.6,1z"/>
	</g>
</g>
<g id="Layer_3">
	<g id="XMLID_17_">
		<path id="XMLID_174_" class="st2" d="M283.9,98.1c-1.8,8.1-1.8,16.3-3.4,23.9c-1.8,8.2-6.9,15.3-8.4,22.9
			c-1.6,8.3-3.8,16.1-5,23.7c-1.3,8.4-1.6,16.6-2.2,24.2c-0.7,8.6,2.4,16.6,2.9,24.1c0.6,8.6,0.5,16.5,2.9,23.7
			c2.6,7.8,4.5,16.3,9.8,22.4c4.9,5.7,10.8,12.6,18.4,17c6.3,3.6,14.4,7.1,22.9,9.8c7,2.2,16-1.4,24.7,0.1
			c8.6-0.8,16.8,3.8,23.7,2.8c9-1.3,15.9-7,22.2-8.9c9.8-3,13.8-8.2,17.1-13.2c3.7-5.7,4.8-10.5,0.6-20c-2.5-5.8-3.1-14.5-8.5-22.2
			c-4-5.6-13.1-8.4-18.6-15.2c-4.6-5.5-9.7-11.3-15.3-17.6c-4.8-5.5-5.6-15.3-11.2-21.4c-5-5.5-11.1-10.5-16.7-16.5
			c-5.1-5.5-9.1-12.4-14.6-18.4c-5.1-5.5-11.2-10.5-16.8-16.4c-5.2-5.5-10.3-11.4-15.8-17.3"/>
	</g>
	<g id="XMLID_18_">
		<path id="XMLID_127_" class="st2" d="M170.2,171.7c1.9,8.1,2,16.4,3.9,24c2,8.2,1.7,16.6,3.7,24.1c2.1,8.2,7.8,15,10.1,22.4
			c2.5,8.2,6.3,15.3,9.1,22.4c3.1,8,4.9,16,8.7,22.6c4.3,7.5,8.9,14.1,14.3,19.5c5.8,5.9,11.4,12.5,18.9,15.8
			c6.9,3.1,15.5,3.5,24.3,4.2c7.3,0.6,15.9,3.2,24.7,1.9c7.3-1.1,13.7-8.4,22.2-10.8c7.4-4.5,13.8-8.1,19.6-12.1
			c7.5-5.1,15-8,19.9-12.5c7.5-7,13.1-13.3,13.8-19.4c0.8-6.7-3.8-13.9-11.7-20.6c-4.8-4.1-12.4-6.8-20.6-11.3
			c-6.1-3.3-11.2-10.6-19.2-14.3c-6.5-3-15-3.3-22.8-6.6c-6.8-2.9-15.1-3.1-22.8-6.2c-6.9-2.8-12-11.1-19.7-14.1
			c-7-2.7-16.3-0.4-23.9-3.3c-7-2.7-14-6.3-21.6-9.2c-7.1-2.7-15-3.8-22.6-6.7"/>
	</g>
	<g id="XMLID_19_">
		<path id="XMLID_123_" class="st2" d="M101.8,285.6c5.2,6.5,10.2,12.9,15.2,19c5.3,6.5,4.9,17.4,10,23.3c5.5,6.4,10.5,13,15.7,18.7
			c5.8,6.3,15,8.6,20.7,13.8c6.3,5.9,10,14.6,16.2,18.9c7.1,4.9,15.3,8.1,22.5,10.7c7.8,2.8,16.5,3.2,24.6,3
			c7.6-0.2,14.8-4.8,22.9-8c6.9-2.7,15.4-3.6,22.8-8.6c6.2-4.1,14-8.3,20.6-14.1c4.7-7.3,7.4-15.4,11-21.5c4.5-7.9,7.6-15.3,10-21.4
			c3.7-9.5,8.4-18.5,6.4-24.4c-2.2-6.6-12.9-6.9-22.7-9.8c-6.1-1.8-13.3-1.7-22.7-2.3c-6.9-0.5-14.5-1.7-23.2-1.7
			c-7.2,0.1-14.9,0.7-23.4,1c-7.3,0.3-15.4-3.7-23.7-3.2c-7.4,0.5-14.9,5.7-23.2,6.3c-7.5,0.5-15.5-1.4-23.7-0.8
			c-7.5,0.6-15.8-3.7-23.9-3c-7.6,0.6-15.3,2.1-23.4,2.8"/>
	</g>
	<g id="XMLID_20_">
		<path id="XMLID_119_" class="st2" d="M86.3,421.6c7.5,3.6,15.7,4.9,22.8,8.2c7.5,3.5,11.7,13.8,18.7,17c7.7,3.4,17.5,1,24.6,3.9
			c7.9,3.2,15.8,4.1,23.1,6.4c8.2,2.6,14.9,7.7,22.3,8.9c8.5,1.4,16.8,6.3,24.3,5.5c8.2-0.8,13.7-10.3,20.8-14
			c6.7-3.5,16.4-3.5,22.3-9.9c4.9-5.4,4.5-15.4,9-23c3.7-6.4,12.6-11.1,16-19.1c1.1-8.5,3.2-16.6,3.7-23.5c0.7-9-5.8-16.9-6.2-23.4
			c-0.7-10.3-1-16.3-5.2-20.6c-4.7-4.8-10.9-9.9-21.1-7.8c-6.2,1.3-12.4,7.6-21,11.3c-6.3,2.7-12.1,8.2-19.9,12.2
			c-6.4,3.2-13.7,5.9-21,9.9c-6.4,3.5-16.4,1.6-23.6,5.7c-6.4,3.7-13.2,7.6-20.2,11.7c-6.4,3.7-12.5,8.9-19.5,13
			c-6.5,3.8-11.9,9.9-18.9,13.9c-6.5,3.8-12.1,9.7-19,13.8"/>
	</g>
	<g id="XMLID_21_">
		<path id="XMLID_115_" class="st2" d="M132.3,552c8.3,0,16.3-0.7,24.1-0.8c8.3-0.1,16.3-4,24.1-4.2c8.4-0.2,16.7,3.9,24.3,3.4
			c8.5-0.5,16.6-2.1,24.1-3.1c8.5-1.2,16.5-3.6,23.7-5.7c8.3-2.4,15.1-7,21.7-10.8c7.1-4.2,11.4-10.5,16.3-17
			c4.6-6,7.8-12.3,10.4-20.7c2.2-7,6.2-14.1,6.9-23c0.6-7.3-2.9-14.8-3.4-23.5c-2.7-8.2-2.2-16.1-4.8-22.7
			c-3.3-8.5-7.5-15-10.8-20.7c-5.1-8.8-9.6-14.1-15.4-16.2c-6.4-2.4-14.7-3.6-23,2.4c-5.2,3.7-7.8,12.5-14.1,19.5
			c-4.6,5.1-9.3,11.3-14.6,18.2c-4.4,5.7-10.3,10.9-15.3,17.8c-4.3,5.9-8.1,12.8-12.9,19.6c-4.2,6.1-10.8,11-15.5,17.8
			c-4.2,6.2-5.4,14.9-10,21.6c-4.2,6.2-8.5,12.8-13,19.5c-4.2,6.3-11.3,11-15.8,17.7"/>
	</g>
	<g id="XMLID_22_">
		<path id="XMLID_112_" class="st2" d="M230.4,646.8c7.5-3.7,15.5-5.8,22.6-9.3c7.5-3.7,12.1-12.7,19-16.4
			c7.5-3.9,17.5-2.7,24.2-6.6c7.4-4.2,13.8-9.8,20.2-14.1c7.2-4.8,13.2-10.7,18.9-15.8c6.4-5.8,13.8-11,18-17.4
			c4.6-6.9,6.1-16,7.8-23.9c1.6-7.5,4.7-16.3,3.5-25c-1-7.3-10.4-13.3-13.6-21.7c-2.6-6.9-5.1-13.8-9.4-21.6
			c-6.1-6.3-11.5-11.2-16.7-15.9c-6.8-6.2-9.1-16-14.6-19.7c-8.5-5.6-17.5-6.8-23.7-6.1c-6.9,0.7-10.2,7.9-15.3,16.7
			c-3.2,5.6-6,12.3-8.8,21.3c-2.1,6.7-8.7,13-10.6,21.6c-1.6,7.1,2.4,15.9,0.9,24.3c-1.4,7.3-3.5,14.8-4.9,23.1
			c-1.2,7.4-7.7,14.3-9,22.5c-1.2,7.5,0.2,15.7-1,23.8c-1.1,7.5-1.2,15.5-2.4,23.6c-1.1,7.6-5.2,14.9-6.3,23"/>
	</g>
	<g id="XMLID_23_">
		<path id="XMLID_110_" class="st2" d="M357.9,687.9c5.1-6.5,11-12.1,15.8-18.3c5.1-6.6,12-11.5,16.6-17.6
			c5.1-6.7,9.5-13.5,13.9-19.8c4.8-7,6.9-15.3,10.8-21.8c4.3-7.4,11-13.3,13.9-20.3c3.2-8,3.5-16.8,4.5-24.3
			c1-8.1,0.7-16.6-1.4-24.4c-1.9-7.3-7.6-13.4-12.6-20.6c-4.1-6-10.8-10.2-17.2-16.2c-5.4-5-10.4-10.4-17.5-15.5
			c-8.1-3-15.1-5-21.8-7.1c-8.7-2.7-15-10-21.5-11c-10.1-1.6-19.9-1.4-25.1,1.7c-5.9,3.4-3.4,13.3-3.9,23.6
			c-0.3,6.3-1.1,13.5,0.5,22.7c1.1,6.8,0.8,14.7,2.9,23.2c1.7,7-0.4,15.6,1.9,23.8c2,7,5.5,14.2,7.9,22.2c2.1,7.1,6.2,14,8.6,21.9
			c2.2,7.1,3.4,15,5.8,22.7c2.2,7.2,6,14.2,8.4,21.9c2.3,7.2,7.5,13.7,9.9,21.5"/>
	</g>
	<g id="XMLID_24_">
		<path id="XMLID_109_" class="st2" d="M495,671.7c1.8-8.1-1.6-17.1,0.1-24.8c1.8-8.2,5.9-15.6,7.4-23.2c1.7-8.3,2.9-16.3,4.1-23.9
			c1.4-8.4-1.7-16.8-1-24.4c0.7-8.6,3.6-16.3,3.2-23.8c-0.4-8.6-1.5-16.4-3.7-23.7c-2.5-7.9-3.3-17-8.4-23.3
			c-4.8-5.9-11.7-11.7-19.3-16.1c-6.3-3.7-15.1-4.5-23.6-7.2c-7-2.2-14.8-5.8-23.5-7.4c-8.6,0.8-16.4,4.1-23.4,5.1
			c-9,1.4-17.5,0.1-23.8,2.1c-9.8,3.1-15.7,9.4-19,14.6c-3.6,5.8-2.1,12.8,1.9,22.3c2.5,5.9,3.5,14.4,9,22
			c4,5.7,11.3,10.1,16.8,16.8c4.6,5.6,10.6,10.7,16.2,17.1c4.8,5.5,7.5,13.7,13.1,19.8c5,5.5,11.1,10.5,16.7,16.6
			c5.1,5.5,8.6,13,14.2,18.9c5.2,5.5,14.4,7.6,20,13.5c5.2,5.5,7.2,14.4,12.8,20.3"/>
	</g>
	<g id="XMLID_25_">
		<path id="XMLID_111_" class="st2" d="M609.5,596.8c-1.9-8.1-8.5-14.9-10.3-22.5c-2-8.2-2-16.4-4-24c-2.1-8.2-2.5-16.5-4.7-23.9
			c-2.5-8.2-3.2-16.7-6-23.8c-3.1-8-8.7-14.8-12.4-21.4c-4.2-7.5-10.2-13.4-15.5-18.9c-5.7-5.9-12.3-10.5-19.7-13.8
			c-6.9-3.1-14.5-6.5-23.3-7.1c-7.3-0.6-15.8-1.3-24.6,0c-7.3,1.1-15.8,2.8-24.3,5.2c-7.4,4.5-12.1,12.2-18,16.2
			c-7.5,5.2-12.2,11.2-17.1,15.7c-7.4,7-12.8,10.9-13.6,17.1c-0.9,6.8,1.8,12.6,9.4,19.5c4.8,4.3,9.2,11.9,17.4,16.5
			c6,3.4,15.2,2.8,23.2,6.5c6.5,3.1,12.3,9.3,20.1,12.7c6.8,2.9,16,1,23.8,4.1c6.9,2.8,11.7,12,19.4,15c7,2.8,14.8,4.3,22.5,7.2
			c7,2.7,15,4.1,22.6,7c7.1,2.7,13.3,8.5,20.9,11.4"/>
	</g>
	<g id="XMLID_26_">
		<path id="XMLID_113_" class="st2" d="M674.8,483.8c-5.2-6.5-4.7-17.3-9.7-23.4c-5.3-6.5-10.8-12.5-15.8-18.5
			c-5.5-6.5-15.3-8.6-20.6-14.3c-5.8-6.3-10.7-12.6-16.3-17.9c-6.3-5.9-10.1-14.2-16.3-18.6c-7.1-5-15.2-8-22.3-10.7
			c-7.7-2.9-16.1,0.3-24.2,0.5c-7.6,0.1-14.8,0.1-23,3.3c-6.9,2.6-16.3,2.1-23.7,7.1c-6.1,4.1-13.8,9-20.4,14.8
			c-4.7,7.3-5.8,16.5-9.4,22.6c-4.6,7.9-4.5,16.3-6.9,22.4c-3.7,9.6-9.6,16.2-7.5,22c2.3,6.4,8.4,14.4,18.3,17.2
			c6.2,1.7,14.8,2.8,24.2,3.4c6.9,0.4,15-6,23.8-6.1c7.2-0.1,15.1,2.9,23.6,2.5c7.3-0.3,15.1-2.7,23.4-3.2
			c7.4-0.5,15.2-2.2,23.4-2.8c7.5-0.6,15.4,0.2,23.6-0.5c7.5-0.6,15.1-3.7,23.3-4.4c7.6-0.6,15.6,1.9,23.7,1.2"/>
	</g>
	<g id="XMLID_27_">
		<path id="XMLID_117_" class="st2" d="M691.3,345.8c-7.5-3.6-13.8-9.2-20.9-12.5c-7.6-3.5-17.3-1.6-24.4-4.7
			c-7.7-3.4-12.9-11.7-20.1-14.5c-7.9-3.1-15.5-6.3-22.8-8.5c-8.2-2.5-16.9-0.7-24.4-1.8c-8.5-1.3-16-0.5-23.5,0.3
			c-8.2,0.9-17.8-2.8-25,1c-6.7,3.6-13.3,9.8-19.2,16.3c-5,5.4-4.7,15.5-9.1,23.2c-3.7,6.4-7.8,12.5-11.3,20.6
			c-1.1,8.6-3.4,15.7-3.9,22.8c-0.7,9.1,2.3,16.5,2.8,23.1c0.8,10.2-0.2,16.9,4,21.3c4.7,5,10.9,7.4,21,5.6
			c6.3-1.1,12.3-6.9,21-10.4c6.4-2.6,16.4,0.7,24.3-3.2c6.4-3.2,12.5-8.7,19.9-12.8c6.5-3.5,14.3-5.5,21.6-9.6
			c6.5-3.6,12.7-8.6,19.8-12.7c6.5-3.7,12.9-8.4,19.9-12.5c6.5-3.8,11.4-11,18.4-15.1c6.5-3.8,16.1-3,23.1-7.1"/>
	</g>
	<g id="XMLID_28_">
		<path id="XMLID_121_" class="st2" d="M644.5,217c-8.4,0-16.5,4.6-24.4,4.7c-8.4,0.1-16.5-0.7-24.4-0.4c-8.5,0.3-16.5,1.5-24.2,2.1
			c-8.6,0.6-16.6,0.3-24.2,1.4c-8.6,1.3-16.1,3.5-23.4,5.7c-8.3,2.5-17.5,1.6-24.1,5.6c-7.1,4.3-12.9,10.7-17.9,17.2
			c-4.7,6.1-10.4,12.9-13,21.3c-2.2,7.1-0.6,15.9-1.4,24.8c-0.6,7.4,1.6,15,2.1,23.8c2.7,8.2,0.8,16.9,3.4,23.5
			c3.4,8.5,8.5,14.9,11.9,20.6c5.2,8.8,10.2,15.7,16.1,17.7c6.5,2.2,15.1,0.2,23.5-5.7c5.3-3.7,10.4-10.1,16.7-17
			c4.7-5.1,9.3-11.5,14.8-18.4c4.5-5.7,7-13.5,12.1-20.4c4.4-6,9.2-12.1,14-19c4.3-6.1,13.7-9.2,18.4-16c4.3-6.2,6.4-14.3,11.1-21.1
			c4.3-6.3,7.2-13.8,11.7-20.6c4.3-6.3,12.2-10.5,16.8-17.2"/>
	</g>
	<g id="XMLID_29_">
		<path id="XMLID_125_" class="st2" d="M548,125.9c-7.5,3.7-13.4,10.1-20.4,13.6c-7.5,3.7-16,4.8-23,8.3c-7.5,3.9-16.5,4.4-23.2,8.2
			c-7.4,4.2-12.2,11.9-18.6,16.2c-7.2,4.8-16.6,6.1-22.3,11.1c-6.4,5.8-11.5,13-15.7,19.3c-4.6,6.9-5,15.6-6.7,23.6
			c-1.6,7.5-4,15.4-2.8,24.1c1,7.3,4.9,14.6,8.1,23c2.6,6.9,3.5,15.8,7.7,23.6c6,6.2,15.9,7.7,21.1,12.4c6.7,6.2,9.1,15.6,14.7,19.3
			c8.5,5.7,16.9,7.9,23,7.1c6.8-0.8,8.6-8.8,13.5-17.8c3.1-5.6,9.5-11,12.1-20c2-6.7,4.7-14.1,6.6-22.7c1.5-7.1,3.9-14.6,5.4-23
			c1.3-7.2-0.9-15.6,0.4-23.9c1.2-7.4,1.4-15.3,2.7-23.4c1.1-7.4,9.3-14.2,10.5-22.3c1.1-7.5,0.4-15.5,1.6-23.6
			c1.1-7.5-2.9-16.1-1.7-24.1"/>
	</g>
	<g id="XMLID_30_">
		<path id="XMLID_153_" class="st2" d="M418.7,81.2c-5.2,6.6-7.7,14.9-12.6,21.1c-5.2,6.6-8.7,14.1-13.4,20.3
			c-5.1,6.8-16.2,8.8-20.6,15.1c-4.9,7-2.9,17.9-6.9,24.5c-4.4,7.4-11.3,12.8-14.3,19.8c-3.3,8-8.5,15.4-9.6,23
			c-1.2,8.2-0.2,17.3,1.6,25.2c1.7,7.4,7,14.4,11.9,21.7c4.1,6.1,7.7,14.1,14.2,20.2c5.4,5.1,12.9,9.3,20.1,14.5
			c8.2,3,15.2,8.1,22,10.1c8.8,2.6,17.9-1.4,24.5-0.5c10.1,1.3,17.1,2.2,22.4-1.1c5.9-3.7,6.8-10,7.6-20.1
			c0.5-6.4,1.4-13.9,0.1-23.2c-1-6.9-1.8-14.7-3.8-23.3c-1.6-7.1-1.3-15.3-3.5-23.6c-1.9-7.1-2.6-15.2-4.9-23.3
			c-2.1-7.2-4.5-14.7-6.9-22.7c-2.2-7.2-3.3-15.2-5.7-23.1c-2.2-7.3-12-12.5-14.5-20.3c-2.3-7.3-2.5-15.5-4.9-23.3"/>
	</g>
</g>
<g id="Layer_4">
	<g id="XMLID_2_">
		<path id="XMLID_178_" class="st3" d="M517.9,383.4c0,11.7,5.3,25.1,2.3,35.8c-3,11.2-10.6,22.2-16.4,31.9
			c-5.8,9.8-15.4,18.2-23.6,26.1c-8.2,7.9-17.9,15.2-27.9,20.8c-9.8,5.5-21.6,8.3-32.8,11.2c-10.8,2.8-22.4-2.8-34.1-2.8
			c-11.7,0-24.7,11.1-35.4,8.3c-11.2-2.9-19.7-14.4-29.5-19.9c-10-5.6-16-15.4-24.1-23.2c-8.1-7.9-22.9-10.8-28.7-20.7
			c-5.7-9.7,1.3-24.6-1.7-35.7c-2.9-10.7-11.8-20-11.8-31.7c0-11.8,3.9-22.6,6.8-33.5c3-11.3,0.5-25.1,6.2-35
			c5.7-10,14.8-19.1,22.8-27.3c8.1-8.2,15.8-19.4,25.7-25.3c9.8-5.8,23-8.4,34.3-11.5c10.9-3,23.5-1,35.4-1
			c11.8,0,22.5,5.3,33.4,8.3c11.2,3.1,21.2,7.3,31.1,13.1c10,5.9,23.6,7.5,31.7,15.7c8.1,8.2,13.7,19.5,19.5,29.5
			c5.7,9.9,7,22,10,33.2C514.2,360.5,517.9,371.6,517.9,383.4z"/>
	</g>
</g>
<g id="Layer_6">
	<g id="XMLID_44_">
		<path id="XMLID_177_" class="st4" d="M383.4,271.1c-5.2-0.6-9.7-1-13.3,0.8c-4.1,2-7.7,5.6-9.9,9.7c-2.1,3.8-1.2,8.9-1.8,13.5
			c-0.6,4.4-3.4,9.1-2.7,13.5c0.7,4.6,3.9,8.7,5.8,12.5c2.2,4.4,5,7.9,8.7,9.8c19.4,10.1,5.4,11.6,14,9.8c5.5-1.2,9.8-5.2,14.1-6.2
			c6-1.4,10.7-2.2,14.2-4c5.4-2.7,7.4-5.1,5.9-11c-0.9-3.5-2.4-8.1-6.1-13.6c-2.4-3.5-4.3-8.4-7.9-13c-2.8-3.5-6.4-7.1-10-11.4
			C391.1,278,387,275.2,383.4,271.1z"/>
	</g>
	<g id="XMLID_45_">
		<path id="XMLID_170_" class="st4" d="M340.5,278.5c-5,1.5-9.6,3.9-12.3,7.1c-2.9,3.5-4.5,8.4-5,13c-0.4,4.3,0.6,9.1,1.8,13.6
			c1.2,4.3,1.6,9.5,3.9,13.4c2.4,4.1,7.5,6.1,10.7,8.9c3.7,3.3,7.4,4.7,11.6,5.1c21.8,1.9,9.2,9.7,16.3,4.6
			c4.6-3.3,6.9-8.7,10.5-11.3c5-3.7,9.1-6.1,11.7-9.1c4-4.6,5-7.7,1.4-12.6c-2.2-2.9-4.3-8.1-9.9-11.8c-3.6-2.4-9-3.3-14.1-6.1
			c-4-2.2-8.8-3.8-13.8-6.3C349.4,284.8,345.4,280.9,340.5,278.5z"/>
	</g>
	<g id="XMLID_46_">
		<path id="XMLID_166_" class="st4" d="M304,304.6c-4.1,3.3-5.2,7.1-6.5,11.1c-1.4,4.4-4.5,9-3.1,13.5c1.3,4.2,3.7,8.9,6.6,12.7
			c2.7,3.6,8.1,5.1,11.7,7.8c3.8,2.9,7.5,5.6,11.5,7c4.7,1.6,9.9,3.7,13.9,2.5c20.8-6.5,11.2,2.1,15.7-5.3c2.9-4.8,4.9-9.5,7.2-13.3
			c3.2-5.3,4-10.4,5.2-14.1c2-5.8,3.3-11.3-1.9-14.4c-3.1-1.9-9.1,0-15.7-1.3c-4.2-0.8-8.6-5.3-14.4-6c-4.5-0.5-9.9,3.2-15.5,2.7
			C314.2,307,309.4,305,304,304.6z"/>
	</g>
	<g id="XMLID_47_">
		<path id="XMLID_129_" class="st4" d="M280.1,341.5c-2.5,4.6-3.4,9.2-3.1,13.2c0.3,4.5,3.1,8.1,6,11.7c2.7,3.3,5.6,6.7,9.7,9
			c3.9,2.2,8.6,2,12.9,3.1c4.5,1.1,8.7,4.2,12.9,3.9c4.9-0.4,8.8-2.9,12-5.6c16.8-14,10-0.5,11.4-9.1c0.9-5.5,3.7-10.2,4.4-14.6
			c1-6.1,1.4-11.1,1.2-15c-0.4-6.1-2.9-8.6-8.9-9.5c-3.6-0.5-8.1-0.1-14.7,1.3c-4.2,0.9-9.5,0.2-15.1,1.8c-4.3,1.2-8.4,5.1-13.7,6.7
			C290.7,339.8,285.2,339.8,280.1,341.5z"/>
	</g>
	<g id="XMLID_48_">
		<path id="XMLID_99_" class="st4" d="M272.1,385.1c-0.6,5.2,1.4,9.2,3.2,12.8c2,4.1,3.7,9,7.7,11.2c3.8,2.1,9.1,0.8,13.7,1.4
			c4.4,0.6,8.9,1.9,13.3,1.2c4.7-0.7,8.5-3.4,12.3-5.3c4.4-2.2,9-3.8,10.9-7.5c10.1-19.4,10.7-5.5,8.7-14c-1.2-5.4-5-9.7-6-14.1
			c-1.4-6,0.1-11.9-1.6-15.5c-2.6-5.6-7.9-6.9-13.8-5.5c-3.5,0.9-7.2,4-12.7,7.7c-3.5,2.4-7.7,5-12.3,8.6c-3.5,2.8-8.9,4.1-13.2,7.7
			C279.1,377,276.2,381.5,272.1,385.1z"/>
	</g>
	<g id="XMLID_49_">
		<path id="XMLID_95_" class="st4" d="M280.2,428.2c1.4,5,4.5,9.8,7.6,12.4c3.4,3,8.6,2.3,13.2,2.8c4.3,0.5,8.7,1.2,13.2,0
			c4.3-1.2,8.9-2.4,12.8-4.6c4-2.4,6.6-6.5,9.4-9.7c3.2-3.7,7.7-7.2,8.1-11.3c1.9-21.8,6.2-9.2,1.2-16.3c-3.2-4.6-7-8.1-9.6-11.7
			c-3.6-5-7.5-7.9-10.5-10.5c-4.6-4-7.8-6.1-12.7-2.5c-2.9,2.2-6.1,6-9.7,11.6c-2.4,3.6-6.1,7.2-8.9,12.3c-2.2,4-4.7,8.4-7.3,13.3
			C284.9,418.2,282.7,423.4,280.2,428.2z"/>
	</g>
	<g id="XMLID_50_">
		<path id="XMLID_91_" class="st4" d="M305.8,465.2c3.3,4.1,7.3,7.7,11.2,8.9c4.3,1.4,9.4,0.1,13.9-1.2c4.2-1.3,8.7-3,12.4-5.9
			c3.6-2.7,5.6-7.3,8.3-10.9c2.9-3.8,5-7.6,6.4-11.6c1.6-4.7,1.6-8.7,0.4-12.7c-6.5-20.8,4.2-10.6-3.2-15.1c-4.8-2.9-8.2-7-12.1-9.3
			c-5.3-3.2-10.3-4.8-14-6.1c-5.8-2-11.2-1.6-14.3,3.6c-1.9,3.1-1.4,8.6-2.6,15.2c-0.8,4.2-4.3,8.8-4.9,14.6
			c-0.5,4.5,0.3,9.7-0.2,15.2C306.5,454.5,306.1,459.8,305.8,465.2z"/>
	</g>
	<g id="XMLID_51_">
		<path id="XMLID_87_" class="st4" d="M343.3,488.9c4.5,2.5,9.6,0.8,13.6,0.5c4.5-0.3,9,0.1,12.6-2.7c3.3-2.7,5-7.1,7.3-11.2
			c2.2-3.8,3.6-7.9,4.7-12.2c1.1-4.5,3.4-8.8,3.1-13c-0.4-4.9-3.4-8.2-6.1-11.4c-14-16.8,0.4-12.7-8.1-14.2
			c-5.5-1-10.6-1.4-14.9-2.1c-6.1-1-11.1-2.7-15-2.5c-6,0.4-8.2,3.8-9,9.9c-0.5,3.6-2,8.4-0.6,14.9c0.9,4.2,4.2,8.5,5.8,14.1
			c1.2,4.3,2.9,9,4.6,14.3C342.5,477.7,341.6,483.7,343.3,488.9z"/>
	</g>
	<g id="XMLID_52_">
		<path id="XMLID_84_" class="st4" d="M386.4,498.6c5.2,0.6,11.1-0.9,14.7-2.7c4-2.1,5.3-7.2,7.5-11.3c2.1-3.8,4.2-7.6,4.8-12.2
			c0.6-4.4-0.4-8.8-1-13.3c-0.7-4.7-2-8.6-3.9-12.4c-2.2-4.4-3.3-9.7-7-11.7c-19.4-10.1-6.1-11.4-14.6-9.4
			c-5.5,1.3-10.1,3.7-14.5,4.8c-6,1.5-10.7,3.5-14.3,5.3c-5.4,2.8-8.6,6.7-7.1,12.6c0.9,3.5,4.3,7.5,8,13c2.4,3.6,6.5,6.7,10.1,11.3
			c2.8,3.6,5,8.3,8.6,12.5C380.8,488.6,382.8,494.5,386.4,498.6z"/>
	</g>
	<g id="XMLID_53_">
		<path id="XMLID_82_" class="st4" d="M430.5,486.2c5-1.4,9.1-2.8,11.8-5.8c3-3.4,3.7-8.1,4.2-12.7c0.5-4.3,1.5-9.1,0.3-13.6
			c-1.2-4.3-2.7-9.1-5-12.9c-2.4-4-8-5.4-11.2-8.1c-3.7-3.2-6.5-8.1-10.6-8.5c-21.8-1.9-9.5-7-16.6-2c-4.6,3.2-7.3,8.1-11,10.7
			c-5,3.6-9.8,5.6-12.3,8.6c-3.9,4.6-5.1,8.9-1.4,13.8c2.2,2.9,6.7,5.3,12.2,9c3.6,2.4,7.5,5.4,12.7,8.3c4,2.2,8.5,4.4,13.4,7
			C421.1,482,425.6,483.8,430.5,486.2z"/>
	</g>
	<g id="XMLID_54_">
		<path id="XMLID_80_" class="st4" d="M466.4,461.1c4.1-3.2,5.1-6.7,6.4-10.5c1.4-4.3,3.2-8.3,1.9-12.7c-1.2-4.1-3-8.6-5.8-12.2
			c-2.7-3.5-5.7-7.5-9.3-10.2c-3.8-2.8-8.9-3.4-12.9-4.7c-4.7-1.5-9.1-2-13-0.8c-20.8,6.5-10.8-3.8-15.4,3.6
			c-3,4.7-5.4,9.1-7.8,12.9c-3.3,5.2-7.7,8.9-8.9,12.6c-2,5.8,1.2,9.5,6.4,12.6c3.1,1.8,7.2,4.3,13.7,5.6c4.2,0.8,9.2,0.6,15,1.2
			c4.5,0.5,9.5-0.2,15.1,0.3C456.4,459,461,460.7,466.4,461.1z"/>
	</g>
	<g id="XMLID_55_">
		<path id="XMLID_78_" class="st4" d="M491.7,425.8c2.5-4.6,4.9-9.7,4.6-13.8c-0.4-4.5-3.6-9-6.6-12.6c-2.7-3.3-7.2-5.3-11.3-7.6
			c-3.9-2.2-8.3-2.9-12.7-4c-4.6-1.2-8.9-3.8-13.1-3.5c-5,0.3-9.9,1.8-13.1,4.5c-16.8,14-10.2,1.5-11.6,10.1
			c-0.9,5.6-3.5,10.3-4.1,14.7c-0.9,6.1-0.2,11.2,0.1,15.2c0.5,6.1,2.5,9.3,8.5,10.2c3.6,0.6,8.7,1.7,15.3,0.4
			c4.2-0.8,8.7-3.7,14.4-5.3c4.4-1.2,9.3-2.5,14.6-4.2C481.2,428.3,486.5,427.6,491.7,425.8z"/>
	</g>
	<g id="XMLID_56_">
		<path id="XMLID_76_" class="st4" d="M497.1,381c0.6-5.1,2.1-9.6,0.4-13.2c-2-4.1-6-7.6-10-9.8c-3.7-2.1-9-0.3-13.6-0.9
			c-4.4-0.6-8.5-0.8-12.8-0.1c-4.6,0.7-9.1,0.6-12.9,2.5c-4.3,2.2-8.1,4.9-10.1,8.6c-10.1,19.4-8.8,4.8-7,13.3
			c1.2,5.5-0.2,10.9,0.7,15.2c1.4,6,3.3,10.9,4.9,14.5c2.6,5.5,7,7.4,12.9,5.8c3.5-0.9,6.7-4.8,12.2-8.6c3.5-2.4,9.9-2.2,14.4-5.8
			c3.5-2.8,5.2-8.7,9.4-12.3C489.3,387.2,493.1,384.5,497.1,381z"/>
	</g>
	<g id="XMLID_57_">
		<path id="XMLID_74_" class="st4" d="M489.4,338.5c-1.4-5-3.2-9.9-6.2-12.5c-3.4-3-8.7-3.3-13.2-3.8c-4.3-0.5-9.1-0.9-13.6,0.3
			c-4.3,1.2-9.4,2.1-13.2,4.3c-4,2.4-7.9,5.9-10.7,9.1c-3.2,3.7-3.1,9.1-3.5,13.2c-1.9,21.8-6.4,7.2-1.4,14.4
			c3.2,4.6,4,10.2,6.6,13.8c3.6,5,8.6,7.1,11.5,9.8c4.5,4.1,8.7,7.9,13.5,4.2c2.9-2.2,4.1-8,7.7-13.5c2.3-3.5,6.4-6.9,9.2-12
			c2.2-3.9,5-8.1,7.5-13.1C485.8,348.4,487,343.3,489.4,338.5z"/>
	</g>
	<g id="XMLID_58_">
		<path id="XMLID_72_" class="st4" d="M465.5,301.7c-3.3-4.1-7.9-7.4-11.8-8.7c-4.3-1.4-8.8,1.5-13.3,2.8c-4.1,1.2-7.5,3.4-11.3,6.2
			c-3.6,2.7-7.8,4.7-10.5,8.2c-2.8,3.8-3.3,8.4-4.6,12.4c-1.6,4.7-4.7,8.9-3.4,12.9c6.5,20.8-1.4,8.9,5.9,13.6
			c4.7,3,7.2,8.6,10.9,10.9c5.2,3.2,11.1,2.7,14.8,4c5.8,2,10,2.8,13.1-2.4c1.8-3.1,3-8.1,4.2-14.6c0.8-4.2-0.7-9.4-0.1-15.2
			c0.5-4.5,3.7-9.2,4.1-14.7C464.1,312.6,465.1,307.2,465.5,301.7z"/>
	</g>
	<g id="XMLID_59_">
		<path id="XMLID_70_" class="st4" d="M427.6,278c-4.6-2.5-9.8-4.3-13.8-4c-4.5,0.3-8.1,4.2-11.8,7.1c-3.4,2.7-6,6.1-8.4,10.1
			c-2.2,3.9-3.5,8.1-4.6,12.4c-1.2,4.6-4,8.9-3.7,13.2c0.3,4.9,2.8,9.3,5.5,12.5c14,16.8,1.1,12.2,9.7,13.7c5.5,1,10.8-0.1,15.2,0.6
			c6.1,1,11,3.6,14.9,3.3c6-0.4,7.4-4,8.3-10.1c0.5-3.6,2-8.3,0.7-14.7c-0.9-4.2-2.5-8.9-4.1-14.6c-1.2-4.4-3.2-9-4.9-14.3
			C429.2,288.9,429.3,283.2,427.6,278z"/>
	</g>
</g>
<g id="Layer_8">
	<circle id="XMLID_1_" class="st4" cx="385.5" cy="383.4" r="65.2"/>
</g>
<g id="Layer_7">
</g>
</svg>
